<svg width="960" height="640" viewBox="0 0 960 640" fill="none" xmlns="http://www.w3.org/2000/svg">
  <defs>
    <linearGradient id="fw-bg" x1="0" y1="0" x2="1" y2="1">
      <stop offset="0%" stop-color="#f8fafc" />
      <stop offset="100%" stop-color="#e2e8f0" />
    </linearGradient>
  </defs>
  <rect width="960" height="640" rx="36" fill="url(#fw-bg)" />
  <rect x="80" y="90" width="800" height="70" rx="18" fill="#0b1226" opacity="0.7" />
  <rect x="120" y="120" width="160" height="16" rx="8" fill="#e2e8f0" opacity="0.8" />
  <rect x="320" y="120" width="80" height="16" rx="8" fill="#94a3b8" opacity="0.7" />
  <rect x="420" y="120" width="80" height="16" rx="8" fill="#94a3b8" opacity="0.7" />

  <rect x="80" y="190" width="360" height="360" rx="24" fill="#ffffff" />
  <rect x="110" y="230" width="220" height="16" rx="8" fill="#cbd5f5" />
  <rect x="110" y="260" width="270" height="12" rx="6" fill="#e2e8f0" />
  <rect x="110" y="290" width="250" height="12" rx="6" fill="#e2e8f0" />
  <rect x="110" y="330" width="280" height="90" rx="16" fill="#f8fafc" />
  <rect x="110" y="440" width="280" height="90" rx="16" fill="#f8fafc" />

  <rect x="480" y="220" width="400" height="150" rx="22" fill="#0f172a" opacity="0.6" />
  <rect x="510" y="260" width="220" height="14" rx="7" fill="#94a3b8" opacity="0.6" />
  <rect x="510" y="290" width="180" height="12" rx="6" fill="#94a3b8" opacity="0.55" />

  <rect x="480" y="400" width="400" height="150" rx="22" fill="#0f172a" opacity="0.5" />
  <rect x="510" y="440" width="200" height="14" rx="7" fill="#94a3b8" opacity="0.6" />
  <rect x="510" y="470" width="240" height="12" rx="6" fill="#94a3b8" opacity="0.55" />

  <circle cx="860" cy="110" r="40" fill="#2dd4bf" opacity="0.35" />
  <circle cx="120" cy="560" r="50" fill="#f97316" opacity="0.2" />
</svg>
