<svg width="1200" height="800" viewBox="0 0 1200 800" fill="none" xmlns="http://www.w3.org/2000/svg">
  <defs>
    <linearGradient id="bg3" x1="0" y1="0" x2="1" y2="1">
      <stop offset="0%" stop-color="#0b1226" />
      <stop offset="50%" stop-color="#112b3a" />
      <stop offset="100%" stop-color="#1f7a8c" />
    </linearGradient>
  </defs>
  <rect width="1200" height="800" rx="48" fill="url(#bg3)" />
  <circle cx="210" cy="140" r="120" fill="#2dd4bf" opacity="0.22" />
  <circle cx="1030" cy="650" r="170" fill="#f59e0b" opacity="0.18" />

  <rect x="140" y="140" width="420" height="520" rx="26" fill="#f8fafc" />
  <rect x="180" y="190" width="260" height="18" rx="9" fill="#cbd5f5" />
  <rect x="180" y="230" width="320" height="12" rx="6" fill="#e2e8f0" />
  <rect x="180" y="260" width="280" height="12" rx="6" fill="#e2e8f0" />

  <rect x="180" y="320" width="320" height="80" rx="16" fill="#ffffff" />
  <rect x="180" y="420" width="320" height="80" rx="16" fill="#ffffff" />
  <rect x="180" y="520" width="320" height="80" rx="16" fill="#ffffff" />

  <rect x="620" y="200" width="440" height="420" rx="28" fill="#0f172a" opacity="0.55" />
  <rect x="660" y="240" width="300" height="14" rx="7" fill="#94a3b8" opacity="0.6" />
  <rect x="660" y="270" width="220" height="12" rx="6" fill="#94a3b8" opacity="0.55" />

  <rect x="660" y="320" width="360" height="120" rx="18" fill="#111827" opacity="0.7" />
  <rect x="660" y="470" width="360" height="120" rx="18" fill="#111827" opacity="0.7" />

  <rect x="610" y="180" width="460" height="460" rx="32" stroke="#2dd4bf" stroke-width="2" opacity="0.55" />
</svg>
