<svg width="1200" height="800" viewBox="0 0 1200 800" fill="none" xmlns="http://www.w3.org/2000/svg">
  <defs>
    <linearGradient id="bg" x1="0" y1="0" x2="1" y2="1">
      <stop offset="0%" stop-color="#0b1226" />
      <stop offset="55%" stop-color="#12344a" />
      <stop offset="100%" stop-color="#1f7a8c" />
    </linearGradient>
    <linearGradient id="panel" x1="0" y1="0" x2="1" y2="0">
      <stop offset="0%" stop-color="#f8fafc" />
      <stop offset="100%" stop-color="#e2e8f0" />
    </linearGradient>
  </defs>
  <rect width="1200" height="800" rx="48" fill="url(#bg)" />
  <circle cx="160" cy="120" r="90" fill="#2dd4bf" opacity="0.25" />
  <circle cx="1060" cy="160" r="140" fill="#f59e0b" opacity="0.18" />
  <circle cx="980" cy="700" r="180" fill="#2dd4bf" opacity="0.18" />

  <rect x="110" y="130" width="560" height="360" rx="24" fill="url(#panel)" />
  <rect x="150" y="175" width="300" height="20" rx="10" fill="#cbd5f5" />
  <rect x="150" y="210" width="410" height="14" rx="7" fill="#e2e8f0" />
  <rect x="150" y="240" width="360" height="14" rx="7" fill="#e2e8f0" />

  <rect x="150" y="290" width="190" height="90" rx="16" fill="#ffffff" />
  <rect x="365" y="290" width="260" height="90" rx="16" fill="#ffffff" />
  <rect x="150" y="400" width="475" height="60" rx="16" fill="#ffffff" />

  <rect x="730" y="190" width="360" height="440" rx="28" fill="#0f172a" opacity="0.45" />
  <rect x="760" y="230" width="300" height="18" rx="9" fill="#94a3b8" opacity="0.6" />
  <rect x="760" y="265" width="240" height="14" rx="7" fill="#94a3b8" opacity="0.5" />
  <rect x="760" y="310" width="300" height="90" rx="18" fill="#1f2937" opacity="0.7" />
  <rect x="760" y="420" width="300" height="90" rx="18" fill="#111827" opacity="0.7" />

  <rect x="730" y="190" width="360" height="440" rx="28" stroke="#2dd4bf" stroke-width="2" opacity="0.6" />
</svg>
