<svg width="1200" height="800" viewBox="0 0 1200 800" fill="none" xmlns="http://www.w3.org/2000/svg">
  <defs>
    <linearGradient id="bg2" x1="0" y1="0" x2="1" y2="1">
      <stop offset="0%" stop-color="#0b1226" />
      <stop offset="45%" stop-color="#132a46" />
      <stop offset="100%" stop-color="#0f766e" />
    </linearGradient>
  </defs>
  <rect width="1200" height="800" rx="48" fill="url(#bg2)" />
  <circle cx="240" cy="680" r="150" fill="#f97316" opacity="0.2" />
  <circle cx="980" cy="120" r="120" fill="#2dd4bf" opacity="0.25" />

  <rect x="140" y="120" width="920" height="80" rx="20" fill="#0f172a" opacity="0.55" />
  <rect x="180" y="150" width="140" height="14" rx="7" fill="#e2e8f0" opacity="0.65" />
  <rect x="360" y="150" width="90" height="14" rx="7" fill="#94a3b8" opacity="0.6" />
  <rect x="470" y="150" width="90" height="14" rx="7" fill="#94a3b8" opacity="0.6" />
  <rect x="580" y="150" width="90" height="14" rx="7" fill="#94a3b8" opacity="0.6" />

  <rect x="140" y="240" width="520" height="420" rx="26" fill="#f8fafc" />
  <rect x="190" y="300" width="240" height="16" rx="8" fill="#cbd5f5" />
  <rect x="190" y="330" width="330" height="12" rx="6" fill="#e2e8f0" />
  <rect x="190" y="360" width="300" height="12" rx="6" fill="#e2e8f0" />
  <rect x="190" y="410" width="430" height="90" rx="18" fill="#ffffff" />
  <rect x="190" y="520" width="430" height="90" rx="18" fill="#ffffff" />

  <rect x="700" y="260" width="360" height="180" rx="24" fill="#0f172a" opacity="0.5" />
  <rect x="730" y="300" width="300" height="16" rx="8" fill="#94a3b8" opacity="0.6" />
  <rect x="730" y="330" width="220" height="12" rx="6" fill="#94a3b8" opacity="0.55" />

  <rect x="700" y="470" width="360" height="190" rx="24" fill="#0f172a" opacity="0.55" />
  <rect x="730" y="510" width="260" height="14" rx="7" fill="#94a3b8" opacity="0.6" />
  <rect x="730" y="540" width="220" height="12" rx="6" fill="#94a3b8" opacity="0.55" />
  <rect x="730" y="570" width="260" height="12" rx="6" fill="#94a3b8" opacity="0.55" />
</svg>
