<svg width="960" height="640" viewBox="0 0 960 640" fill="none" xmlns="http://www.w3.org/2000/svg">
  <defs>
    <linearGradient id="hs-bg" x1="0" y1="0" x2="1" y2="1">
      <stop offset="0%" stop-color="#0b1226" />
      <stop offset="60%" stop-color="#113047" />
      <stop offset="100%" stop-color="#1f7a8c" />
    </linearGradient>
  </defs>
  <rect width="960" height="640" rx="36" fill="url(#hs-bg)" />
  <rect x="100" y="110" width="320" height="420" rx="24" fill="#f8fafc" opacity="0.95" />
  <rect x="130" y="160" width="200" height="16" rx="8" fill="#cbd5f5" />
  <rect x="130" y="195" width="230" height="12" rx="6" fill="#e2e8f0" />
  <rect x="130" y="225" width="210" height="12" rx="6" fill="#e2e8f0" />
  <rect x="130" y="270" width="240" height="80" rx="16" fill="#ffffff" />
  <rect x="130" y="370" width="240" height="80" rx="16" fill="#ffffff" />

  <rect x="460" y="140" width="400" height="160" rx="22" fill="#0f172a" opacity="0.55" />
  <rect x="490" y="180" width="220" height="14" rx="7" fill="#94a3b8" opacity="0.6" />
  <rect x="490" y="210" width="260" height="12" rx="6" fill="#94a3b8" opacity="0.55" />

  <rect x="460" y="330" width="400" height="200" rx="24" fill="#0f172a" opacity="0.5" />
  <rect x="490" y="370" width="200" height="14" rx="7" fill="#94a3b8" opacity="0.6" />
  <rect x="490" y="400" width="260" height="12" rx="6" fill="#94a3b8" opacity="0.55" />
  <rect x="490" y="430" width="220" height="12" rx="6" fill="#94a3b8" opacity="0.55" />

  <circle cx="840" cy="120" r="50" fill="#f97316" opacity="0.25" />
  <circle cx="140" cy="560" r="60" fill="#2dd4bf" opacity="0.25" />
</svg>
