<svg width="960" height="640" viewBox="0 0 960 640" fill="none" xmlns="http://www.w3.org/2000/svg">
  <defs>
    <linearGradient id="ts-bg" x1="0" y1="0" x2="1" y2="1">
      <stop offset="0%" stop-color="#f8fafc" />
      <stop offset="100%" stop-color="#e2e8f0" />
    </linearGradient>
  </defs>
  <rect width="960" height="640" rx="36" fill="url(#ts-bg)" />

  <rect x="90" y="120" width="220" height="380" rx="22" fill="#ffffff" />
  <rect x="120" y="170" width="160" height="14" rx="7" fill="#cbd5f5" />
  <rect x="120" y="200" width="140" height="10" rx="5" fill="#e2e8f0" />
  <rect x="120" y="240" width="160" height="80" rx="14" fill="#f8fafc" />
  <rect x="120" y="340" width="160" height="80" rx="14" fill="#f8fafc" />

  <rect x="370" y="90" width="220" height="420" rx="22" fill="#0f172a" opacity="0.6" />
  <rect x="400" y="140" width="160" height="14" rx="7" fill="#94a3b8" opacity="0.6" />
  <rect x="400" y="170" width="120" height="10" rx="5" fill="#94a3b8" opacity="0.55" />
  <rect x="400" y="220" width="160" height="90" rx="14" fill="#111827" opacity="0.7" />
  <rect x="400" y="330" width="160" height="90" rx="14" fill="#111827" opacity="0.7" />

  <rect x="650" y="120" width="220" height="380" rx="22" fill="#ffffff" />
  <rect x="680" y="170" width="160" height="14" rx="7" fill="#cbd5f5" />
  <rect x="680" y="200" width="140" height="10" rx="5" fill="#e2e8f0" />
  <rect x="680" y="240" width="160" height="80" rx="14" fill="#f8fafc" />
  <rect x="680" y="340" width="160" height="80" rx="14" fill="#f8fafc" />

  <circle cx="150" cy="100" r="30" fill="#2dd4bf" opacity="0.25" />
  <circle cx="820" cy="540" r="40" fill="#f97316" opacity="0.22" />
  <rect x="90" y="520" width="780" height="12" rx="6" fill="#1f7a8c" opacity="0.3" />
</svg>
